<?xml version="1.0" encoding="utf-8"?>
<!-- Generator: Adobe Illustrator 15.0.0, SVG Export Plug-In  -->
<!DOCTYPE svg [
	<!ENTITY ns_flows "http://ns.adobe.com/Flows/1.0/">
]>
<svg version="1.2" baseProfile="tiny"
	 xmlns="http://www.w3.org/2000/svg" xmlns:xlink="http://www.w3.org/1999/xlink" xmlns:a="http://ns.adobe.com/AdobeSVGViewerExtensions/3.0/"
	 x="0px" y="0px" width="800px" height="800px" viewBox="-142.668 -116.727 800 800" xml:space="preserve">
<defs>
</defs>
<rect x="266.999" y="295.273" fill="#00534A" width="218" height="149.334"/>
<polygon fill="#D4F7EA" points="478,437.607 273.998,437.607 273.998,302.273 478,302.273 478,437.607 "/>
<polygon fill="#FFFFFF" points="463,422.607 288.999,422.607 288.999,317.273 463,317.273 463,422.607 "/>
<path fill="#A6C7C3" d="M243.067,444.603c0.683,8.947,8.144,16,17.267,16h234c9.122,0,16.583-7.053,17.266-16H243.067z"/>
<path fill="#FFFFFF" d="M507.409,454.605c1.498-1.736,2.662-3.768,3.385-6H243.873c0.723,2.232,1.887,4.264,3.385,6H507.409z"/>
<rect x="359.499" y="449.275" fill="#00534A" width="44" height="4.666"/>
<rect x="298.713" y="359.425" fill="#00B99D" width="45.239" height="41.697"/>
<rect x="352.799" y="359.425" fill="#FF733E" width="45.236" height="41.697"/>
<rect x="407.86" y="359.425" fill="#FF2C55" width="45.239" height="41.697"/>
<rect x="294.332" y="321.275" fill="#00B99D" width="41" height="4"/>
<rect x="294.332" y="411.275" fill="#00B99D" width="162" height="4"/>
<path fill="#CDE2DD" d="M13.84,416.275h281.375c3.13-1.41,5.313-4.549,5.313-8.205V294.275h-292V408.07
	C8.527,411.726,10.709,414.865,13.84,416.275z"/>
<rect x="108.194" y="410.402" fill="#D9E7E3" width="69.333" height="32.666"/>
<rect x="108.194" y="387.402" fill="#90B8AF" width="69.333" height="32.666"/>
<path fill="#FFFFFF" d="M293.527,407.07c0,4.971-4.029,9-9,9h-274c-4.971,0-9-4.029-9-9v-183c0-4.971,4.029-9,9-9h274
	c4.971,0,9,4.029,9,9V407.07z"/>
<path fill="#00534A" d="M293.527,395.736c0,4.971-4.029,9-9,9h-274c-4.971,0-9-4.029-9-9v-183c0-4.971,4.029-9,9-9h274
	c4.971,0,9,4.029,9,9V395.736z"/>
<path fill="#D4F7EA" d="M284.527,399.736H10.526c-2.206,0-4.001-1.795-4.001-3.998V212.737c0-2.207,1.795-4.001,4.001-4.001h274.001
	c2.205,0,4,1.794,4,4.001v183.001C288.527,397.941,286.732,399.736,284.527,399.736L284.527,399.736z"/>
<polygon fill="#FFFFFF" points="278.529,389.738 16.524,389.738 16.524,218.736 278.529,218.736 278.529,389.738 "/>
<polygon fill="#C0D7D1" points="108.194,443.068 62.194,459.734 146.193,459.734 146.193,443.068 "/>
<polygon fill="#C0D7D1" points="176.527,443.068 222.527,459.734 138.527,459.734 138.527,443.068 "/>
<rect x="62.194" y="459.734" fill="#FFFFFF" width="159.332" height="3.334"/>
<rect x="26.192" y="369.732" fill="#C0D7D1" width="240.667" height="2"/>
<rect x="26.192" y="369.732" fill="#00534A" width="58.667" height="2"/>
<rect x="27.575" y="266.397" fill="#00B99D" width="70.882" height="65.334"/>
<rect x="112.318" y="266.397" fill="#FF733E" width="70.881" height="65.334"/>
<rect x="198.594" y="266.397" fill="#FF2C55" width="70.883" height="65.334"/>
<path fill="#FF733E" d="M22.664,466.863c0,1.885-1.492,3.412-3.332,3.412l0,0c-1.842,0-3.334-1.527-3.334-3.412v-78.506
	c0-1.887,1.492-3.414,3.334-3.414l0,0c1.84,0,3.332,1.527,3.332,3.414V466.863z"/>
<path fill="#FF733E" d="M52.332,395.275h-33v6.666h33c1.842,0,3.334-1.492,3.334-3.334
	C55.666,396.767,54.174,395.275,52.332,395.275z"/>
<path fill="#FF733E" d="M52.332,416.607h-33v6.668h33c1.842,0,3.334-1.492,3.334-3.334S54.174,416.607,52.332,416.607z"/>
<path fill="#FF733E" d="M52.332,437.275h-33v6.666h33c1.842,0,3.334-1.492,3.334-3.334
	C55.666,438.767,54.174,437.275,52.332,437.275z"/>
<path fill="#FF733E" d="M52.332,455.275h-33v6.666h33c1.842,0,3.334-1.492,3.334-3.334
	C55.666,456.767,54.174,455.275,52.332,455.275z"/>
<path fill="#FF733E" d="M55.998,466.863c0,1.885-1.492,3.412-3.332,3.412l0,0c-1.842,0-3.334-1.527-3.334-3.412v-78.506
	c0-1.887,1.492-3.414,3.334-3.414l0,0c1.84,0,3.332,1.527,3.332,3.414V466.863z"/>
<path fill="#FF733E" d="M153.545,188.061h24.098c0.162-1.999,0.213-4.125,0.213-6.333l12-101.333c0-11.598-9.402-21-21-21h-5.334
	c-11.598,0-21,9.402-21,21l11,101.333C153.521,183.936,153.5,186.063,153.545,188.061z"/>
<path fill="#F65D33" d="M168.855,59.395h-2.328v128.667h11.115c0.162-1.999,0.213-4.125,0.213-6.333l12-101.333
	C189.855,68.796,180.453,59.395,168.855,59.395z"/>
<path fill="#00534A" d="M182.523,188.728c0,1.841-1.492,3.333-3.334,3.333h-26.668c-1.84,0-3.332-1.492-3.332-3.333l0,0
	c0-1.841,1.492-3.333,3.332-3.333h26.668C181.031,185.395,182.523,186.887,182.523,188.728L182.523,188.728z"/>
<path fill="#00534A" d="M175.313,188.728H156.4c0,0-7.211,6.667-7.211,15.333s16.666,26.122,16.666,26.122
	s15.334-16.123,16.668-24.789C183.855,196.728,175.313,188.728,175.313,188.728z"/>
<circle fill="#FFFFFF" cx="166.183" cy="203.72" r="2.667"/>
<polyline fill="#FFFFFF" points="166.527,229.462 166.527,204.57 165.693,204.57 165.693,230.012 "/>
<path fill="#00534A" d="M161.027,239.736v-10.001h10v9v1.001H161.027L161.027,239.736z M170.027,238.735v-0.999V238.735
	L170.027,238.735z M163.025,237.737h6v-6h-6V237.737L163.025,237.737z"/>
<path fill="#00534A" d="M120.859,265.236v-10.001h10v9.001v1H120.859L120.859,265.236z M129.859,264.236v-1V264.236L129.859,264.236
	z M122.859,263.236h6l-0.002-6h-5.998V263.236L122.859,263.236z"/>
<path fill="#00534A" d="M202.025,265.736v-10h10.002v9v1H202.025L202.025,265.736z M211.025,264.736v-0.999V264.736L211.025,264.736
	z M204.027,263.737h5.998v-6h-5.998V263.737L204.027,263.737z"/>
<polygon fill="#00534A" points="120.525,235.737 120.525,233.736 162.027,233.736 162.027,235.737 120.525,235.737 "/>
<path fill="#00534A" d="M112.026,233.737c0-2.764,2.238-5,5.001-5.001l0,0c2.762,0.002,4.998,2.238,4.998,5.001l0,0
	c0,2.761-2.236,4.999-4.998,4.999l0,0C114.264,238.736,112.026,236.498,112.026,233.737L112.026,233.737z M114.025,233.737
	c0.004,1.656,1.346,2.997,3.002,2.999l0,0c1.654-0.002,2.994-1.343,2.998-2.999l0,0c-0.004-1.656-1.344-2.997-2.998-3.001l0,0
	C115.371,230.74,114.029,232.081,114.025,233.737L114.025,233.737z"/>
<polygon fill="#00534A" points="170.027,235.736 170.027,233.735 211.527,233.735 211.527,235.736 170.027,235.736 "/>
<path fill="#00534A" d="M210.025,233.735c0-2.76,2.238-5,5.002-5l0,0c2.762,0,4.998,2.239,4.998,5l0,0
	c0,2.762-2.236,4.999-4.998,5.001l0,0C212.264,238.734,210.025,236.498,210.025,233.735L210.025,233.735z M215.027,236.736
	c1.654-0.004,2.996-1.344,2.998-3l0,0c-0.002-1.655-1.344-2.997-2.998-2.999l0,0c-1.656,0.002-2.998,1.344-3.002,2.999l0,0
	C212.029,235.392,213.371,236.731,215.027,236.736L215.027,236.736z"/>
<path fill="#00534A" d="M169.895,235.95l0.217-1.987c14.512,1.616,31.516,8.827,37.752,21.902l0,0l-1.809,0.853
	C200.426,244.681,183.971,237.468,169.895,235.95L169.895,235.95z"/>
<path fill="#00534A" d="M124.604,255.518c5.33-12.593,22.707-20.04,37.334-21.576l0,0l0.203,1.991
	c-14.168,1.409-31.021,8.947-35.691,20.354l0,0L124.604,255.518L124.604,255.518z"/>
<path fill="#00534A" d="M407.958,210.644c0,4.426-3.167,8.012-7.073,8.012h-98.236c-3.907,0-7.073-3.586-7.073-8.012V42.394
	c0-4.426,3.166-8.013,7.073-8.013h98.236c3.906,0,7.073,3.587,7.073,8.013V210.644z"/>
<polygon fill="#FFFFFF" points="399.695,210.392 303.838,210.392 303.838,42.646 399.695,42.646 399.695,210.392 "/>
<rect x="312.102" y="50.081" fill="#00BCA0" width="42.971" height="10.743"/>
<path fill="#93E9BB" d="M311.688,127.345V73.632h79.329v53.3v0.413H311.688L311.688,127.345z M390.604,126.932v-0.413V126.932
	L390.604,126.932z M312.515,126.519h77.677l-0.002-52.061h-77.675V126.519L312.515,126.519z"/>
<polygon fill="#93E9BB" points="311.869,126.589 390.372,73.702 390.835,74.388 312.332,127.274 311.869,126.589 "/>
<polygon fill="#93E9BB" points="311.869,74.388 312.332,73.702 390.835,126.589 390.372,127.274 311.869,74.388 "/>
<rect x="310.449" y="136.021" fill="#00BCA0" width="80.155" height="10.742"/>
<rect x="310.449" y="160.812" fill="#FF6A31" width="80.155" height="10.742"/>
<rect x="310.449" y="187.255" fill="#FF1A51" width="80.155" height="10.742"/>
<rect x="312.102" y="190.56" fill="#FFFFFF" width="28.923" height="2.479"/>
<rect x="312.102" y="164.943" fill="#FFFFFF" width="28.923" height="2.479"/>
<rect x="312.102" y="140.704" fill="#FFFFFF" width="28.923" height="2.479"/>
<path fill="#00534A" d="M454.422,242.243v-2.002h10.001v2.002H454.422L454.422,242.243z M434.422,242.243v-2.002h10.001v2.002
	H434.422L434.422,242.243z M414.422,242.243v-2.002h10.001v2.002H414.422L414.422,242.243z M394.422,242.243v-2.002h10.001v2.002
	H394.422L394.422,242.243z M374.424,242.243v-2.002h9.999v2.002H374.424L374.424,242.243z M354.424,242.243v-2.002h9.999v2.002
	H354.424L354.424,242.243z M334.422,242.243v-2.002h10.001v2.002H334.422L334.422,242.243z M314.423,242.243v-2.002h10.001v2.002
	H314.423L314.423,242.243z M294.423,242.243v-2.002h10.001v2.002H294.423L294.423,242.243z M274.423,242.243v-2.002h10.001v2.002
	H274.423L274.423,242.243z M254.423,242.243v-2.002h10.001v2.002H254.423L254.423,242.243z M238.105,242.243l0.002-5.686h1.998
	v3.684h4.318v2.002H238.105L238.105,242.243z M463.423,233.446v-10h1.999v10H463.423L463.423,233.446z M238.105,226.56v-10.002h2
	v10.002H238.105L238.105,226.56z M463.423,213.446v-10h1.999v10H463.423L463.423,213.446z M238.105,206.56v-10.002h2v10.002H238.105
	L238.105,206.56z M463.423,193.446v-9.999h1.999v9.999H463.423L463.423,193.446z M238.105,186.56v-10.001h2v10.001H238.105
	L238.105,186.56z M463.423,173.446v-9.999h1.999v9.999H463.423L463.423,173.446z M238.105,166.56v-10.001h2v10.001H238.105
	L238.105,166.56z M463.423,153.446v-9.999h1.999v9.999H463.423L463.423,153.446z M238.105,146.56v-10.001h2v10.001H238.105
	L238.105,146.56z M463.423,133.446v-9.998h1.999v9.998H463.423L463.423,133.446z M238.105,126.558v-9.998h2v9.998H238.105
	L238.105,126.558z M463.423,113.446v-9.998h1.999v9.998H463.423L463.423,113.446z M238.105,106.558V96.56h2v9.998H238.105
	L238.105,106.558z M463.423,93.446v-9.998h1.999v9.998H463.423L463.423,93.446z M238.105,86.558V76.56h2v9.998H238.105
	L238.105,86.558z M463.423,73.446v-9.998h1.999v9.998H463.423L463.423,73.446z M238.105,66.558V56.56h2v9.998H238.105
	L238.105,66.558z M463.423,53.446v-10h1.999v10H463.423L463.423,53.446z M238.105,46.559V36.56h2v9.999H238.105L238.105,46.559z
	 M463.423,33.447V23.446h1.999v10.001H463.423L463.423,33.447z M238.105,26.559V16.56h2v9.999H238.105L238.105,26.559z
	 M463.423,13.447V8.663h-3.215V6.661h5.214v6.786H463.423L463.423,13.447z M440.208,8.663V6.661h10.001v2.002H440.208L440.208,8.663
	z M420.208,8.663V6.661h10.001v2.002H420.208L420.208,8.663z M400.208,8.663V6.661h10.001v2.002H400.208L400.208,8.663z
	 M380.209,8.663V6.661h9.998v2.002H380.209L380.209,8.663z M360.209,8.663V6.661h9.999v2.002H360.209L360.209,8.663z M340.209,8.663
	V6.661h9.999v2.002H340.209L340.209,8.663z M320.209,8.663V6.661h9.999v2.002H320.209L320.209,8.663z M300.209,8.663V6.661h9.999
	v2.002H300.209L300.209,8.663z M280.209,8.663V6.661h9.999v2.002H280.209L280.209,8.663z M260.21,8.663V6.661h9.998v2.002H260.21
	L260.21,8.663z M240.207,8.663V6.661h10.001v2.002H240.207L240.207,8.663z"/>
<rect x="229.742" y="0.5" fill="#FFFDFD" width="22.035" height="22.036"/>
<path fill="#00534A" d="M229.24,23.035V0h23.037v22.535v0.5H229.24L229.24,23.035z M251.777,22.535v-0.499V22.535L251.777,22.535z
	 M230.24,22.036h21.035V1H230.24V22.036L230.24,22.036z"/>
<rect x="229.742" y="225.817" fill="#FFFDFD" width="22.035" height="22.035"/>
<path fill="#00534A" d="M229.24,248.353v-23.035h23.037v22.535v0.5H229.24L229.24,248.353z M251.777,247.853v-0.5V247.853
	L251.777,247.853z M230.24,247.353h21.035v-21.035H230.24V247.353L230.24,247.353z"/>
<rect x="452.58" y="3.806" fill="#FFFDFD" width="22.035" height="22.036"/>
<path fill="#00534A" d="M452.079,26.341V3.306h23.036v22.537v0.498H452.079L452.079,26.341z M474.615,25.843v-0.501V25.843
	L474.615,25.843z M453.078,25.342h21.036V4.306h-21.036V25.342L453.078,25.342z"/>
<polygon fill="#00534A" points="468.491,232.019 455.7,233.599 457.279,246.39 460.174,242.679 480.353,258.421 485.435,251.907 
	465.258,236.163 "/>
<polygon fill="#E0B3AA" points="497.999,292.607 509,266.274 519.333,293.939 508.666,298.941 "/>
<polygon fill="#00534A" points="511.336,272.545 509,266.274 506.376,272.545 "/>
<polygon fill="#FF733E" points="508.666,405.107 508.666,296.273 497.999,292.607 497.999,405.107 "/>
<polygon fill="#F65D33" points="519.333,405.107 519.333,293.939 508.666,296.273 508.666,405.107 "/>
<rect x="497.999" y="405.107" fill="#FFFFFF" width="21.333" height="10.834"/>
<rect x="497.999" y="415.941" fill="#FF2C55" width="21.499" height="14.5"/>
<rect y="477.937" fill="#FF733E" width="520" height="49.332"/>
<rect y="519.269" fill="#F65D33" width="520" height="8"/>
<circle fill="#FFFFFF" cx="20.667" cy="497.267" r="9.334"/>
<rect x="16.832" y="519.275" fill="#FFFFFF" width="1.5" height="8"/>
<rect x="40.035" y="519.275" fill="#FFFFFF" width="1.5" height="8"/>
<rect x="63.237" y="519.275" fill="#FFFFFF" width="1.5" height="8"/>
<rect x="86.439" y="519.275" fill="#FFFFFF" width="1.5" height="8"/>
<rect x="109.642" y="519.275" fill="#FFFFFF" width="1.5" height="8"/>
<rect x="132.844" y="519.275" fill="#FFFFFF" width="1.5" height="8"/>
<rect x="156.046" y="519.275" fill="#FFFFFF" width="1.5" height="8"/>
<rect x="179.249" y="519.275" fill="#FFFFFF" width="1.5" height="8"/>
<rect x="202.451" y="519.275" fill="#FFFFFF" width="1.5" height="8"/>
<rect x="225.653" y="519.275" fill="#FFFFFF" width="1.5" height="8"/>
<rect x="248.856" y="519.275" fill="#FFFFFF" width="1.5" height="8"/>
<rect x="272.059" y="519.275" fill="#FFFFFF" width="1.5" height="8"/>
<rect x="295.261" y="519.275" fill="#FFFFFF" width="1.5" height="8"/>
<rect x="318.463" y="519.275" fill="#FFFFFF" width="1.5" height="8"/>
<rect x="341.665" y="519.275" fill="#FFFFFF" width="1.5" height="8"/>
<rect x="364.868" y="519.275" fill="#FFFFFF" width="1.5" height="8"/>
<rect x="388.07" y="519.275" fill="#FFFFFF" width="1.5" height="8"/>
<rect x="411.272" y="519.275" fill="#FFFFFF" width="1.5" height="8"/>
<rect x="434.475" y="519.275" fill="#FFFFFF" width="1.5" height="8"/>
<rect x="457.678" y="519.275" fill="#FFFFFF" width="1.5" height="8"/>
<rect x="480.88" y="519.275" fill="#FFFFFF" width="1.5" height="8"/>
<rect x="504.082" y="519.275" fill="#FFFFFF" width="1.5" height="8"/>
</svg>
